<svg width="27" height="22" viewBox="0 0 27 22" fill="none" xmlns="http://www.w3.org/2000/svg">
<path d="M24.75 0.5H2.25C0.984375 0.5 0 1.53125 0 2.75V19.25C0 20.5156 0.984375 21.5 2.25 21.5H24.75C25.9688 21.5 27 20.5156 27 19.25V2.75C27 1.53125 25.9688 0.5 24.75 0.5ZM24.75 19.25H14.2031C14.25 19.0625 14.25 19.4375 14.25 18.2188C14.25 16.7188 12.7969 15.5 11.0625 15.5C10.5938 15.5 10.2188 15.875 9 15.875C7.73438 15.875 7.40625 15.5 6.89062 15.5C5.15625 15.5 3.75 16.7188 3.75 18.2188C3.75 19.4375 3.70312 19.0625 3.75 19.25H2.25V5.75H24.75V19.25ZM16.875 15.5H22.125C22.3125 15.5 22.5 15.3594 22.5 15.125V14.375C22.5 14.1875 22.3125 14 22.125 14H16.875C16.6406 14 16.5 14.1875 16.5 14.375V15.125C16.5 15.3594 16.6406 15.5 16.875 15.5ZM16.875 12.5H22.125C22.3125 12.5 22.5 12.3594 22.5 12.125V11.375C22.5 11.1875 22.3125 11 22.125 11H16.875C16.6406 11 16.5 11.1875 16.5 11.375V12.125C16.5 12.3594 16.6406 12.5 16.875 12.5ZM16.875 9.5H22.125C22.3125 9.5 22.5 9.35938 22.5 9.125V8.375C22.5 8.1875 22.3125 8 22.125 8H16.875C16.6406 8 16.5 8.1875 16.5 8.375V9.125C16.5 9.35938 16.6406 9.5 16.875 9.5ZM9 14C10.6406 14 12 12.6875 12 11C12 9.35938 10.6406 8 9 8C7.3125 8 6 9.35938 6 11C6 12.6875 7.3125 14 9 14Z" fill="#F0C000"/>
</svg>
