<svg width="21" height="16" viewBox="0 0 21 16" fill="none" xmlns="http://www.w3.org/2000/svg">
<path d="M4.5 9.5H1.5C0.65625 9.5 0 10.2031 0 11V14C0 14.8438 0.65625 15.5 1.5 15.5H4.5C5.29688 15.5 6 14.8438 6 14V11C6 10.2031 5.29688 9.5 4.5 9.5ZM12 9.5H9C8.15625 9.5 7.5 10.2031 7.5 11V14C7.5 14.8438 8.15625 15.5 9 15.5H12C12.7969 15.5 13.5 14.8438 13.5 14V11C13.5 10.2031 12.7969 9.5 12 9.5ZM19.5 9.5H16.5C15.6562 9.5 15 10.2031 15 11V14C15 14.8438 15.6562 15.5 16.5 15.5H19.5C20.2969 15.5 21 14.8438 21 14V11C21 10.2031 20.2969 9.5 19.5 9.5ZM4.5 0.5H1.5C0.65625 0.5 0 1.20312 0 2V5C0 5.84375 0.65625 6.5 1.5 6.5H4.5C5.29688 6.5 6 5.84375 6 5V2C6 1.20312 5.29688 0.5 4.5 0.5ZM12 0.5H9C8.15625 0.5 7.5 1.20312 7.5 2V5C7.5 5.84375 8.15625 6.5 9 6.5H12C12.7969 6.5 13.5 5.84375 13.5 5V2C13.5 1.20312 12.7969 0.5 12 0.5ZM19.5 0.5H16.5C15.6562 0.5 15 1.20312 15 2V5C15 5.84375 15.6562 6.5 16.5 6.5H19.5C20.2969 6.5 21 5.84375 21 5V2C21 1.20312 20.2969 0.5 19.5 0.5Z" fill="#F0C000"/>
</svg>
