<svg width="30" height="19" viewBox="0 0 30 19" fill="none" xmlns="http://www.w3.org/2000/svg">
<path d="M20.3438 0H16.3125C15.9375 0 15.6094 0.140625 15.3281 0.421875L10.6875 4.64062C9.9375 5.39062 9.9375 6.5625 10.5938 7.26562C11.2031 7.92188 12.4219 8.10938 13.2188 7.40625C13.2188 7.40625 13.2188 7.40625 13.2656 7.40625L16.9688 3.98438C17.2969 3.70312 17.7656 3.70312 18.0469 4.03125C18.3281 4.3125 18.3281 4.78125 18 5.0625L16.7812 6.1875L23.625 11.7188C23.7188 11.8594 23.8594 11.9531 23.9531 12.0938V3L21.4219 0.46875C21.1406 0.1875 20.7656 0 20.3438 0ZM25.5 3.04688V13.5469C25.5 14.3438 26.1562 15.0469 27 15.0469H30V3.04688H25.5ZM27.75 13.5469C27.3281 13.5469 27 13.1719 27 12.7969C27 12.375 27.3281 12.0469 27.75 12.0469C28.125 12.0469 28.5 12.375 28.5 12.7969C28.5 13.1719 28.125 13.5469 27.75 13.5469ZM0 15H3C3.79688 15 4.5 14.3438 4.5 13.5V3.04688H0V15ZM2.25 12.0469C2.625 12.0469 3 12.375 3 12.7969C3 13.1719 2.625 13.5469 2.25 13.5469C1.82812 13.5469 1.5 13.1719 1.5 12.7969C1.5 12.375 1.82812 12.0469 2.25 12.0469ZM22.6406 12.8906L15.6562 7.21875L14.25 8.48438C12.8438 9.79688 10.7344 9.65625 9.46875 8.29688C8.25 6.9375 8.34375 4.78125 9.70312 3.51562L13.5469 0H9.60938C9.1875 0 8.8125 0.1875 8.53125 0.46875L6 3V13.5H6.84375L11.0625 17.3438C12.375 18.4219 14.25 18.1875 15.2812 16.9219H15.3281L16.125 17.625C16.875 18.2344 18 18.1406 18.6094 17.3906L20.0625 15.5625L20.3438 15.7969C20.9531 16.3125 21.8906 16.2188 22.4531 15.5625L22.875 15C23.3906 14.3438 23.2969 13.4062 22.6406 12.8906Z" fill="#F0C000"/>
</svg>
